<?xml version="1.0" encoding="utf-8"?>
<!-- Generator: Adobe Illustrator 15.0.0, SVG Export Plug-In . SVG Version: 6.00 Build 0)  -->
<!DOCTYPE svg PUBLIC "-//W3C//DTD SVG 1.1//EN" "http://www.w3.org/Graphics/SVG/1.1/DTD/svg11.dtd">
<svg version="1.1" id="Layer_1" xmlns="http://www.w3.org/2000/svg" xmlns:xlink="http://www.w3.org/1999/xlink" x="0px" y="0px"
	 width="37.668px" height="37.667px" viewBox="0 0 37.668 37.667" enable-background="new 0 0 37.668 37.667" xml:space="preserve">
<g>
	<path d="M15.035,11.67c2.41,0,4.498,0.68,4.498,3.482c0,1.417-0.659,2.332-1.921,2.935c1.73,0.49,2.567,1.796,2.567,3.559
		c0,2.856-2.399,4.084-4.955,4.084H8.407V11.67H15.035z M14.634,17.349c1.104,0,1.887-0.478,1.887-1.672
		c0-1.295-1.006-1.607-2.121-1.607h-2.901v3.28H14.634z M14.802,23.342c1.26,0,2.287-0.446,2.287-1.864
		c0-1.438-0.859-2.008-2.221-2.008h-3.37v3.873H14.802z M28.605,22.573h2.466c-0.759,2.332-2.332,3.425-4.765,3.425
		c-3.214,0-5.212-2.176-5.212-5.345c0-3.058,2.109-5.39,5.212-5.39c3.19,0,4.954,2.511,4.954,5.524c0,0.178-0.011,0.357-0.022,0.524
		h-7.342c0,1.629,0.858,2.589,2.5,2.589C27.243,23.9,28.337,23.442,28.605,22.573z M23.327,12.619v1.384h5.701v-1.384H23.327z
		 M23.896,19.548h4.553c-0.123-1.35-0.826-2.176-2.232-2.176C24.878,17.372,23.984,18.209,23.896,19.548z"/>
</g>
<circle fill="none" stroke="#000000" stroke-miterlimit="10" cx="18.834" cy="18.833" r="18.334"/>
</svg>
