<?xml version="1.0" encoding="utf-8"?>
<!-- Generator: Adobe Illustrator 15.0.0, SVG Export Plug-In . SVG Version: 6.00 Build 0)  -->
<!DOCTYPE svg PUBLIC "-//W3C//DTD SVG 1.1//EN" "http://www.w3.org/Graphics/SVG/1.1/DTD/svg11.dtd">
<svg version="1.1" id="Layer_1" xmlns="http://www.w3.org/2000/svg" xmlns:xlink="http://www.w3.org/1999/xlink" x="0px" y="0px"
	 width="37.668px" height="37.667px" viewBox="0 0 37.668 37.667" enable-background="new 0 0 37.668 37.667" xml:space="preserve">
<g>
	<path d="M13.559,13.622h-0.021c-1.191,0-1.955-0.816-1.955-1.837c0-1.042,0.795-1.837,1.999-1.837c1.214,0,1.966,0.795,1.977,1.837
		C15.568,12.806,14.795,13.622,13.559,13.622z M15.332,25.72h-3.545V15.072h3.545V25.72z M28.084,25.72h-3.533v-5.695
		c0-1.429-0.516-2.406-1.795-2.406c-0.979,0-1.559,0.655-1.816,1.289c-0.086,0.236-0.117,0.548-0.117,0.87v5.942h-3.535
		c0.043-9.649,0-10.648,0-10.648h3.535v1.547h-0.021c0.463-0.73,1.301-1.794,3.213-1.794c2.332,0,4.07,1.525,4.07,4.791V25.72z"/>
</g>
<circle fill="none" stroke="#000000" stroke-miterlimit="10" cx="18.834" cy="18.833" r="18.334"/>
</svg>
