<?xml version="1.0" encoding="utf-8"?>
<!-- Generator: Adobe Illustrator 15.0.0, SVG Export Plug-In . SVG Version: 6.00 Build 0)  -->
<!DOCTYPE svg PUBLIC "-//W3C//DTD SVG 1.1//EN" "http://www.w3.org/Graphics/SVG/1.1/DTD/svg11.dtd">
<svg version="1.1" id="Layer_1" xmlns="http://www.w3.org/2000/svg" xmlns:xlink="http://www.w3.org/1999/xlink" x="0px" y="0px"
	 width="37.668px" height="37.667px" viewBox="0 0 37.668 37.667" enable-background="new 0 0 37.668 37.667" xml:space="preserve">
<g>
	<path d="M27.103,15.444c0.013,0.173,0.013,0.347,0.013,0.521c0,5.299-4.033,11.405-11.404,11.405c-2.271,0-4.381-0.658-6.155-1.799
		c0.322,0.037,0.632,0.05,0.968,0.05c1.873,0,3.598-0.634,4.977-1.713c-1.763-0.037-3.24-1.191-3.748-2.78
		c0.248,0.038,0.496,0.062,0.757,0.062c0.36,0,0.72-0.05,1.056-0.137c-1.838-0.372-3.215-1.985-3.215-3.934c0-0.012,0-0.037,0-0.05
		c0.534,0.299,1.154,0.484,1.812,0.51c-1.08-0.72-1.787-1.948-1.787-3.338c0-0.746,0.199-1.427,0.546-2.024
		c1.973,2.433,4.938,4.021,8.264,4.194c-0.062-0.297-0.099-0.607-0.099-0.918c0-2.208,1.787-4.008,4.008-4.008
		c1.154,0,2.197,0.484,2.928,1.266c0.907-0.174,1.775-0.508,2.545-0.968c-0.297,0.93-0.931,1.712-1.762,2.208
		c0.807-0.086,1.589-0.31,2.308-0.621C28.566,14.166,27.884,14.873,27.103,15.444z"/>
</g>
<circle fill="none" stroke="#000000" stroke-miterlimit="10" cx="18.834" cy="18.833" r="18.334"/>
</svg>
